<svg width="20" height="20" viewBox="0 0 20 20" fill="none" xmlns="http://www.w3.org/2000/svg">
<path fill-rule="evenodd" clip-rule="evenodd" d="M6.67786 1.66663H4.14641C2.7757 1.66663 1.66663 2.78533 1.66663 4.16289V6.71632C1.66663 8.09332 2.77594 9.21258 4.14641 9.21258H6.67786C8.04833 9.21258 9.15764 8.09332 9.15764 6.71632V4.16289C9.15764 2.78533 8.04857 1.66663 6.67786 1.66663ZM4.14638 2.82943H6.67783C7.40409 2.82943 7.99483 3.4253 7.99483 4.16291V6.71633C7.99483 7.45345 7.40378 8.04981 6.67783 8.04981H4.14638C3.42044 8.04981 2.82939 7.45345 2.82939 6.71633V4.16291C2.82939 3.4253 3.42013 2.82943 4.14638 2.82943ZM15.8543 1.66663H13.3221C11.9514 1.66663 10.8423 2.78533 10.8423 4.16289V6.71632C10.8423 8.09332 11.9516 9.21258 13.3221 9.21258H15.8543C17.2241 9.21258 18.3333 8.09316 18.3333 6.71632V4.16289C18.3333 2.78549 17.2244 1.66663 15.8543 1.66663ZM13.322 2.82943H15.8543C16.5798 2.82943 17.1705 3.42538 17.1705 4.16291V6.71633C17.1705 7.45337 16.5795 8.04981 15.8543 8.04981H13.322C12.5961 8.04981 12.005 7.45345 12.005 6.71633V4.16291C12.005 3.4253 12.5958 2.82943 13.322 2.82943ZM4.14641 10.7873H6.67786C8.04873 10.7873 9.15764 11.9062 9.15764 13.2844V15.837C9.15764 17.2146 8.04857 18.3333 6.67786 18.3333H4.14641C2.7757 18.3333 1.66663 17.2146 1.66663 15.837V13.2844C1.66663 11.9062 2.77554 10.7873 4.14641 10.7873ZM6.67783 11.9501H4.14638C3.42004 11.9501 2.82939 12.5461 2.82939 13.2844V15.837C2.82939 16.5747 3.42013 17.1705 4.14638 17.1705H6.67783C7.40409 17.1705 7.99483 16.5747 7.99483 15.837V13.2844C7.99483 12.5461 7.40417 11.9501 6.67783 11.9501ZM15.8543 10.7873H13.3221C11.9512 10.7873 10.8423 11.9062 10.8423 13.2844V15.837C10.8423 17.2146 11.9514 18.3333 13.3221 18.3333H15.8543C17.2244 18.3333 18.3333 17.2144 18.3333 15.837V13.2844C18.3333 11.9064 17.2245 10.7873 15.8543 10.7873ZM13.322 11.9501H15.8543C16.5799 11.9501 17.1705 12.5462 17.1705 13.2844V15.837C17.1705 16.5746 16.5798 17.1705 15.8543 17.1705H13.322C12.5958 17.1705 12.005 16.5747 12.005 15.837V13.2844C12.005 12.5461 12.5957 11.9501 13.322 11.9501Z" fill="#EE0000"/>
</svg>
