<svg width="17" height="16" viewBox="0 0 17 16" fill="none" xmlns="http://www.w3.org/2000/svg">
<path d="M12 1.05591C12 0.503623 12.4477 0.0559082 13 0.0559082H16C16.5523 0.0559082 17 0.503623 17 1.05591V14.0559C17 14.6082 16.5523 15.0559 16 15.0559H13C12.4477 15.0559 12 14.6082 12 14.0559V1.05591Z" fill="#666666"/>
<path d="M6 7.05591C6 6.50362 6.44772 6.05591 7 6.05591H10C10.5523 6.05591 11 6.50362 11 7.05591V14.0559C11 14.6082 10.5523 15.0559 10 15.0559H7C6.44772 15.0559 6 14.6082 6 14.0559V7.05591Z" fill="#666666"/>
<path d="M0 1.05591C0 0.503623 0.447715 0.0559082 1 0.0559082H4C4.55228 0.0559082 5 0.503623 5 1.05591V8.05591C5 8.60819 4.55228 9.05591 4 9.05591H1C0.447715 9.05591 0 8.60819 0 8.05591V1.05591Z" fill="#666666"/>
<path d="M6 1.05591C6 0.503623 6.44772 0.0559082 7 0.0559082H10C10.5523 0.0559082 11 0.503623 11 1.05591V4.05591C11 4.60819 10.5523 5.05591 10 5.05591H7C6.44772 5.05591 6 4.60819 6 4.05591V1.05591Z" fill="#666666"/>
<path d="M0 11.0559C0 10.5036 0.447715 10.0559 1 10.0559H4C4.55228 10.0559 5 10.5036 5 11.0559V14.0559C5 14.6082 4.55228 15.0559 4 15.0559H1C0.447715 15.0559 0 14.6082 0 14.0559V11.0559Z" fill="#666666"/>
</svg>
