<svg width="17" height="16" viewBox="0 0 17 16" fill="none" xmlns="http://www.w3.org/2000/svg">
<path d="M0.704238 8.2258L0.704843 8.2252L8.40803 0.525746C8.40813 0.525639 8.40824 0.525532 8.40835 0.525425C8.42492 0.509136 8.44723 0.5 8.47048 0.5C8.49371 0.5 8.51602 0.509127 8.53258 0.525405C8.5327 0.525519 8.53281 0.525633 8.53293 0.525747L16.236 8.22511C16.236 8.22513 16.2361 8.22515 16.2361 8.22518C16.3692 8.35828 16.4409 8.53223 16.4409 8.71617L16.4409 8.71818C16.4411 8.77804 16.4335 8.83755 16.4185 8.89521L15.7378 8.2149L8.8258 1.30666L8.47239 0.953437L8.11893 1.30661L1.20509 8.21485L0.52389 8.89549C0.508955 8.84094 0.50071 8.78394 0.500045 8.72544L0.500045 8.72542C0.498989 8.63273 0.516514 8.54076 0.551584 8.45495C0.586655 8.36914 0.638561 8.29122 0.704238 8.2258ZM15.3843 9.06855H16.3467C16.3168 9.11955 16.2805 9.16662 16.2385 9.20852L16.2379 9.20909C16.1051 9.3419 15.9312 9.41394 15.745 9.41394H14.934H14.434V9.91394V15.5H2.50696V9.91394V9.41394H2.00696H1.2128C0.950124 9.41394 0.721841 9.27369 0.598203 9.06855H1.5585H2.85236V14.6546V15.1546H3.35236H6.22815H6.72815V14.6546V10.3942C6.72815 10.2574 6.83877 10.1467 6.97559 10.1467H9.96536C10.1022 10.1467 10.2128 10.2574 10.2128 10.3942V14.6546V15.1546H10.7128H13.5886H14.0886V14.6546V9.06855H15.3843ZM9.5169 15.1546H10.0169V14.6546V10.8426V10.3426H9.5169H7.42406H6.92406V10.8426V14.6546V15.1546H7.42406H9.5169Z" fill="#EE0000" stroke="#EE0000"/>
</svg>
