<svg width="17" height="13" viewBox="0 0 17 13" fill="none" xmlns="http://www.w3.org/2000/svg">
<path d="M1.57812 11.2122V11.2278H1.59375H16.4688C16.7536 11.2278 16.9844 11.4585 16.9844 11.7434V12.2747C16.9844 12.5595 16.7536 12.7903 16.4688 12.7903H1.0625C0.48443 12.7903 0.015625 12.3215 0.015625 11.7434V0.587158C0.015625 0.302272 0.246364 0.0715332 0.53125 0.0715332H1.0625C1.34739 0.0715332 1.57812 0.302272 1.57812 0.587158V11.2122ZM13.9188 9.60278H13.175C13.0738 9.60278 12.9714 9.55204 12.8939 9.47455C12.8164 9.39705 12.7656 9.29458 12.7656 9.19341V1.54341C12.7656 1.44224 12.8164 1.33976 12.8939 1.26227C12.9714 1.18477 13.0738 1.13403 13.175 1.13403H13.9188C14.0199 1.13403 14.1224 1.18477 14.1999 1.26227C14.2774 1.33976 14.3281 1.44224 14.3281 1.54341V9.19341C14.3281 9.29458 14.2774 9.39705 14.1999 9.47455C14.1224 9.55204 14.0199 9.60278 13.9188 9.60278ZM7.54375 9.60278H6.8C6.69883 9.60278 6.59636 9.55204 6.51886 9.47455C6.44137 9.39705 6.39062 9.29458 6.39062 9.19341V2.60591C6.39062 2.50474 6.44137 2.40226 6.51886 2.32477C6.59636 2.24727 6.69883 2.19653 6.8 2.19653H7.54375C7.64492 2.19653 7.74739 2.24727 7.82489 2.32477C7.90238 2.40226 7.95312 2.50474 7.95312 2.60591V9.19341C7.95312 9.29458 7.90238 9.39705 7.82489 9.47455C7.74739 9.55204 7.64492 9.60278 7.54375 9.60278ZM10.7313 9.60278H9.9875C9.88633 9.60278 9.78386 9.55204 9.70636 9.47455C9.62887 9.39705 9.57812 9.29458 9.57812 9.19341V4.73091C9.57812 4.62974 9.62887 4.52726 9.70636 4.44977C9.78386 4.37227 9.88633 4.32153 9.9875 4.32153H10.7313C10.8324 4.32153 10.9349 4.37227 11.0124 4.44977C11.0899 4.52726 11.1406 4.62974 11.1406 4.73091V9.19341C11.1406 9.29458 11.0899 9.39705 11.0124 9.47455C10.9349 9.55204 10.8324 9.60278 10.7313 9.60278ZM4.35625 9.60278H3.6125C3.51133 9.60278 3.40886 9.55204 3.33136 9.47455C3.25387 9.39705 3.20312 9.29458 3.20312 9.19341V6.85591C3.20312 6.75474 3.25387 6.65226 3.33136 6.57477C3.40886 6.49727 3.51133 6.44653 3.6125 6.44653H4.35625C4.45742 6.44653 4.55989 6.49727 4.63739 6.57477C4.71488 6.65226 4.76562 6.75474 4.76562 6.85591V9.19341C4.76562 9.29458 4.71488 9.39705 4.63739 9.47455C4.55989 9.55204 4.45742 9.60278 4.35625 9.60278Z" fill="#666666" stroke="#666666" stroke-width="0.03125"/>
</svg>
