<svg width="17" height="14" viewBox="0 0 17 14" fill="none" xmlns="http://www.w3.org/2000/svg">
<path d="M0 13.1864L0.5 13.1868C0.501047 12.0938 0.816871 11.0242 1.40971 10.106C2.00255 9.18769 2.84732 8.4596 3.84301 8.00873L4.55465 7.68648L3.96399 7.17521C3.60535 6.86476 3.31768 6.4808 3.12053 6.04937C2.92337 5.61794 2.82133 5.14915 2.82133 4.6748V4.6748C2.82133 3.78131 3.17627 2.92442 3.80806 2.29263C4.43985 1.66084 5.29674 1.30591 6.19022 1.30591C7.08371 1.30591 7.9406 1.66084 8.57239 2.29263L8.91732 1.9477L8.57239 2.29263C9.20418 2.92442 9.55911 3.78131 9.55911 4.6748C9.55912 5.14915 9.45708 5.61794 9.25992 6.04937C9.06276 6.4808 8.7751 6.86476 8.41646 7.17521L7.8258 7.68648L8.53744 8.00873C9.53313 8.4596 10.3779 9.18769 10.9707 10.106C11.5636 11.0242 11.8794 12.0938 11.8804 13.1868L12.3804 13.1864H11.8804C11.8804 13.259 11.8516 13.3286 11.8003 13.3799L12.1538 13.7335L11.8003 13.3799C11.7489 13.4313 11.6793 13.4601 11.6067 13.4601C11.5341 13.4601 11.4644 13.4313 11.4131 13.3799C11.3617 13.3286 11.3329 13.259 11.3329 13.1864C11.3329 11.8224 10.7911 10.5144 9.82664 9.54994C8.8622 8.5855 7.55414 8.04369 6.19022 8.04369C4.8263 8.04369 3.51825 8.5855 2.55381 9.54994C1.58937 10.5144 1.04756 11.8224 1.04756 13.1864C1.04756 13.259 1.01871 13.3286 0.967369 13.3799C0.916025 13.4313 0.84639 13.4601 0.773778 13.4601C0.701166 13.4601 0.63153 13.4313 0.580188 13.3799C0.528845 13.3286 0.5 13.259 0.5 13.1864H0ZM0 13.1864C0.00113889 11.9973 0.344714 10.8337 0.989647 9.83477C1.53752 8.98616 2.28316 8.28684 3.15923 7.79488M0 13.1864L3.15923 7.79488M3.15923 7.79488C3.20819 7.84147 3.2583 7.88696 3.30952 7.93129L3.63676 7.55325L3.43051 7.09777C3.37322 7.12371 3.31635 7.15044 3.25993 7.17793C3.01911 6.90197 2.81876 6.592 2.66576 6.25719C2.43879 5.76053 2.32133 5.22086 2.32133 4.6748C2.32133 3.6487 2.72895 2.66464 3.45451 1.93908C4.18006 1.21352 5.16413 0.805908 6.19022 0.805908C7.21632 0.805908 8.20038 1.21352 8.92594 1.93908C9.6515 2.66464 10.0591 3.6487 10.0591 4.6748C10.0591 5.22086 9.94165 5.76053 9.71469 6.25719C9.56168 6.592 9.36133 6.90197 9.12052 7.17793L3.15923 7.79488ZM9.07093 7.93129C9.12215 7.88696 9.17225 7.84147 9.22122 7.79488L8.74369 7.55325L9.07093 7.93129ZM13.353 6.91174L12.9601 7.35416L13.4618 7.66774C14.3965 8.25188 15.1663 9.06531 15.698 10.0307C16.2297 10.9962 16.5058 12.0815 16.4999 13.1837V13.1864C16.4999 13.259 16.4711 13.3286 16.4197 13.3799C16.3684 13.4313 16.2987 13.4601 16.2261 13.4601C16.1535 13.4601 16.0839 13.4313 16.0325 13.3799C15.9815 13.3289 15.9527 13.2599 15.9523 13.1878C15.9608 12.0611 15.6473 10.9554 15.0488 10.0008C14.4521 9.0491 13.5969 8.28701 12.5833 7.8035L12.5144 7.76641L12.2322 7.57828L12.2322 7.57827L12.2297 7.57662C12.1909 7.55106 12.1592 7.51604 12.1376 7.47485C12.1162 7.43379 12.1054 7.38795 12.1065 7.34162C12.1078 7.2949 12.121 7.24928 12.1449 7.20911C12.1689 7.16885 12.2028 7.13541 12.2434 7.11199L12.2436 7.1119C12.6713 6.86492 13.0268 6.50995 13.2743 6.08251L12.8417 5.83192L13.2743 6.08251C13.5219 5.65506 13.6529 5.1701 13.6542 4.67614V4.6748C13.6542 3.92653 13.357 3.20892 12.8279 2.67981C12.2988 2.15071 11.5812 1.85346 10.8329 1.85346C10.7603 1.85346 10.6906 1.82462 10.6393 1.77328C10.588 1.72193 10.5591 1.6523 10.5591 1.57969C10.5591 1.50708 10.588 1.43744 10.6393 1.3861C10.6906 1.33475 10.7603 1.30591 10.8329 1.30591L10.833 1.30591C11.4824 1.30573 12.118 1.49325 12.6633 1.84589L12.9348 1.42603L12.6633 1.84589C13.2086 2.19853 13.6404 2.70125 13.9066 3.29355C14.1729 3.88585 14.2623 4.54248 14.1641 5.1844C14.0658 5.82632 13.7842 6.42617 13.353 6.91174ZM4.62277 7.02065C5.08674 7.33066 5.63222 7.49613 6.19022 7.49613C6.93849 7.49613 7.65611 7.19889 8.18521 6.66978C8.71431 6.14068 9.01156 5.42306 9.01156 4.6748C9.01156 4.11679 8.84609 3.57131 8.53608 3.10735C8.22606 2.64338 7.78543 2.28177 7.2699 2.06823C6.75437 1.85469 6.18709 1.79881 5.63981 1.90768C5.09252 2.01654 4.58981 2.28524 4.19524 2.67981C3.80067 3.07438 3.53196 3.5771 3.4231 4.12438C3.31424 4.67167 3.37011 5.23894 3.58365 5.75448C3.79719 6.27001 4.15881 6.71064 4.62277 7.02065Z" fill="#666666" stroke="#666666"/>
</svg>
