<svg width="20" height="20" viewBox="0 0 20 20" fill="none" xmlns="http://www.w3.org/2000/svg">
<path fill-rule="evenodd" clip-rule="evenodd" d="M10.0301 1.66663H9.97062C7.163 1.66663 4.58875 3.70376 4.339 6.40076C4.32234 6.59369 4.31099 6.79084 4.30366 7.00322L4.2934 7.49975L4.29137 7.94492L4.3039 7.89417C4.18804 8.45917 3.921 8.98323 3.5304 9.41145L3.47443 9.48346C3.13999 9.9915 2.94783 10.5796 2.91808 11.1868L2.91738 11.3853C2.90031 12.1839 3.17398 12.9742 3.68882 13.6019C4.38699 14.3391 5.29076 14.7788 6.26076 14.8721C8.74162 15.1415 11.2516 15.1415 13.7394 14.8714C14.7028 14.7827 15.6092 14.3417 16.2782 13.6318C16.7832 13.0275 17.0589 12.3024 17.0825 11.5517L17.0833 11.2156C17.0557 10.5816 16.8623 9.99303 16.5238 9.48719L16.4724 9.42118L16.3468 9.27347C16.0646 8.921 15.8585 8.51498 15.7413 8.08069L15.7042 7.92477L15.6965 7.76123C15.6941 7.68768 15.693 7.60612 15.6926 7.50426L15.6925 6.94335C15.6906 6.72877 15.6843 6.5762 15.6694 6.40443C15.4112 3.70234 12.8362 1.66663 10.0301 1.66663ZM9.97064 2.82943H10.0301C12.278 2.82943 14.3286 4.4506 14.5256 6.51103C14.5373 6.64629 14.5424 6.77534 14.544 6.96705L14.5463 7.72092C14.5488 7.84149 14.5535 7.94175 14.5616 8.05456L14.5723 8.13179L14.6264 8.36161C14.7866 8.96956 15.0744 9.53672 15.4706 10.0257L15.5855 10.1604L15.5728 10.1393C15.7925 10.4677 15.9177 10.8488 15.9352 11.2418L15.9346 11.378C15.9479 11.9247 15.7666 12.4442 15.4236 12.8555C14.9704 13.3349 14.3226 13.6502 13.6261 13.7143C11.2106 13.9765 8.78272 13.9765 6.37639 13.7153C5.67234 13.6475 5.024 13.332 4.54473 12.8275C4.23404 12.4463 4.05472 11.9285 4.06598 11.3978L4.06612 11.2156L4.08067 11.0568C4.11574 10.7912 4.20448 10.5221 4.34203 10.2742L4.41178 10.1588C4.92315 9.58361 5.27409 8.88425 5.42866 8.13053L5.44065 8.01236L5.44609 7.2463L5.45947 6.85764C5.46554 6.73503 5.47331 6.61854 5.48305 6.50562C5.67335 4.45069 7.72208 2.82943 9.97064 2.82943ZM4.41178 10.1588C4.39942 10.1727 4.38695 10.1865 4.3744 10.2003L4.41546 10.1527L4.41178 10.1588ZM12.1732 16.4088C11.9261 16.2075 11.5645 16.2472 11.3657 16.4973C11.2795 16.6058 11.1798 16.703 11.0687 16.7868C10.6922 17.0821 10.2224 17.2136 9.75528 17.158C9.28886 17.1024 8.86488 16.865 8.5772 16.4995C8.37955 16.2484 8.01819 16.207 7.7701 16.4071C7.522 16.6071 7.48111 16.9729 7.67877 17.2241C8.15579 17.8301 8.85476 18.2215 9.62103 18.3128C10.3866 18.404 11.1575 18.1882 11.7639 17.7125C11.9439 17.5768 12.1137 17.4112 12.2607 17.2262C12.4596 16.976 12.4204 16.6101 12.1732 16.4088Z" fill="#666666"/>
</svg>
